<svg width="35" height="35" viewBox="0 0 35 35" fill="none" xmlns="http://www.w3.org/2000/svg">
<path fill-rule="evenodd" clip-rule="evenodd" d="M34.2198 17.7909C34.2207 16.6284 34.1205 15.4661 33.9202 14.3189L17.7979 14.3169V20.9009H27.0328C26.6512 23.0283 25.4164 24.907 23.6147 26.101L23.6148 30.3729H29.1248C32.528 27.0895 34.3795 22.5171 34.2198 17.7909Z" fill="#4285F4"/>
<path fill-rule="evenodd" clip-rule="evenodd" d="M17.7978 34.4961C21.9632 34.6129 26.0164 33.1366 29.1308 30.368L23.6188 26.097C20.9305 27.8165 17.6003 28.2026 14.59 27.1437C11.5797 26.0848 9.22455 23.6989 8.20477 20.675H2.5188V25.0751C5.42169 30.8509 11.3334 34.4961 17.7978 34.4961Z" fill="#34A853"/>
<path fill-rule="evenodd" clip-rule="evenodd" d="M8.19769 20.675C7.48157 18.5518 7.48157 16.2522 8.19769 14.129V9.72498H2.51868C0.09375 14.5557 0.09375 20.2482 2.51868 25.079L8.19769 20.675Z" fill="#FBBC04"/>
<path fill-rule="evenodd" clip-rule="evenodd" d="M17.7978 7.06702C20.2357 7.02759 22.5914 7.94812 24.3567 9.63L29.2378 4.74902C26.1421 1.84436 22.0425 0.250427 17.7978 0.300964C11.3326 0.299927 5.42004 3.94635 2.5188 9.724L8.19775 14.124C9.5542 9.95642 13.4153 7.11652 17.7978 7.06299V7.06702Z" fill="#EA4335"/>
</svg>
