<svg width="51" height="50" viewBox="0 0 51 50" fill="none" xmlns="http://www.w3.org/2000/svg">
<circle cx="25.4194" cy="25" r="25" fill="#8940FC"/>
<path fill-rule="evenodd" clip-rule="evenodd" d="M39.2093 24.476C39.2143 18.0466 34.8083 12.4537 28.5569 10.9536C22.3053 9.45333 15.8409 12.4376 12.9278 18.1687C10.0146 23.8997 11.4134 30.8809 16.3097 35.0473L14.1264 39.781L25.3144 38.3811L36.5024 39.781L34.3183 35.049C37.4259 32.4167 39.2153 28.5485 39.2095 24.476H39.2093ZM24.1564 36.19L17.9754 36.962L21.0664 30.262H24.1564V36.19ZM24.1564 27.9491H22.1354L24.0954 23.702C24.8871 23.9614 25.7407 23.9614 26.5323 23.702L28.4924 27.9491H24.1564ZM23.5774 19.844C23.579 19.0308 24.1444 18.3276 24.9383 18.1515C25.7322 17.9754 26.542 18.3736 26.8871 19.11C27.2323 19.8462 27.0205 20.7234 26.3773 21.221C25.7452 21.6823 24.8876 21.6822 24.2554 21.221C23.8281 20.8919 23.5776 20.3833 23.5774 19.844ZM26.4724 36.19V30.265H29.5614L32.6524 36.9651L26.4724 36.19ZM33.3044 32.847L31.1043 28.081V27.95H31.0444L28.4743 22.3811C29.8048 20.7246 29.6302 18.322 28.0746 16.8752C26.5189 15.4283 24.11 15.4283 22.5542 16.8752C20.9985 18.322 20.8241 20.7246 22.1544 22.3811L19.5854 27.948H19.5254V28.081L17.3254 32.847C13.8988 29.5809 12.8054 24.5578 14.5644 20.1629C16.3235 15.768 20.5805 12.8866 25.3144 12.8866C30.0482 12.8866 34.3053 15.7682 36.0643 20.1629C37.8233 24.5578 36.73 29.5809 33.3033 32.847H33.3044Z" fill="white"/>
</svg>
