<svg xmlns="http://www.w3.org/2000/svg">

  <symbol viewBox="0 0 24 24" id="arrow-down">
    <path
      d="M12.53 16.28a.75.75 0 01-1.06 0l-7.5-7.5a.75.75 0 011.06-1.06L12 14.69l6.97-6.97a.75.75 0 111.06 1.06l-7.5 7.5z" />
  </symbol>

  <symbol viewBox="0 0 15 16" id="arrow-link">
    <path
      d="M1.54456 15.5681L12.4515 3.021L12.8509 11.8035C12.872 12.2629 13.2618 12.6189 13.7216 12.5977C14.1814 12.5769 14.5372 12.187 14.5164 11.7273L14.0595 1.69727C14.029 1.25293 13.8217 0.839111 13.484 0.548584C13.1463 0.258057 12.7062 0.114746 12.2623 0.150879L2.28607 1.09302C1.8277 1.13623 1.49121 1.54297 1.53436 2.00098C1.57764 2.45947 1.98419 2.79614 2.44257 2.75269L11.2125 1.90576L0.286499 14.4746C-0.0155029 14.822 0.0213013 15.3484 0.368713 15.6504C0.716126 15.9524 1.24255 15.9155 1.54456 15.5681Z" />
  </symbol>

  <symbol viewBox="0 0 26 19" id="check">
    <path
      d="M24.8704 0.61792C24.394 0.141724 23.6218 0.141724 23.1454 0.61792L8.53539 15.23L2.91739 9.61292C2.43838 9.15259 1.67912 9.16016 1.20938 9.62988C0.739624 10.0996 0.732071 10.8589 1.19238 11.3379L7.67139 17.8169C8.14778 18.2932 8.91998 18.2932 9.39639 17.8169L24.8704 2.3429C25.3466 1.86658 25.3466 1.09436 24.8704 0.61792Z" />
  </symbol>

  <symbol viewBox="0 0 27 32" id="user">
    <path
      d="M13.1518 15.4C15.0933 15.4268 16.9602 14.6532 18.3138 13.261C19.7056 11.9077 20.4792 10.0412 20.4528 8.10001C20.4794 6.15855 19.7058 4.29166 18.3138 2.93803C15.463 0.0877151 10.8415 0.0877151 7.99078 2.93803C6.59863 4.29157 5.82501 6.15852 5.85174 8.10001C5.82501 10.0416 6.59863 11.9085 7.99078 13.2621C9.34442 14.6534 11.2108 15.4265 13.1518 15.4ZM9.24676 4.19501C10.2824 3.15891 11.6873 2.57682 13.1523 2.57682C14.6172 2.57682 16.0221 3.15891 17.0578 4.19501C18.1176 5.21445 18.704 6.6298 18.6758 8.10001C18.7043 9.57056 18.1178 10.9863 17.0578 12.006C16.0222 13.0421 14.6172 13.6242 13.1523 13.6242C11.6873 13.6242 10.2824 13.0421 9.24676 12.006C8.18628 10.9866 7.59943 9.57078 7.62775 8.10001C7.59943 6.62928 8.18628 5.21345 9.24676 4.19404V4.19501Z" />
    <path
      d="M18.3138 13.261L18.0697 13.01L18.0628 13.017L18.3138 13.261ZM20.4528 8.10001L20.1027 8.0952L20.1028 8.10479L20.4528 8.10001ZM18.3138 2.93803L18.0663 3.18556L18.0698 3.18895L18.3138 2.93803ZM7.99078 2.93803L8.23479 3.18899L8.23825 3.18553L7.99078 2.93803ZM5.85174 8.10001L6.20184 8.10483L6.20171 8.09519L5.85174 8.10001ZM7.99078 13.2621L8.24174 13.0179L8.23477 13.0111L7.99078 13.2621ZM9.24676 4.19501H8.89676V5.04025L9.49431 4.44245L9.24676 4.19501ZM17.0578 4.19501L16.8102 4.4425L16.8152 4.44725L17.0578 4.19501ZM18.6758 8.10001L18.3256 8.0933L18.3258 8.1068L18.6758 8.10001ZM17.0578 12.006L16.8151 11.7537L16.8103 11.7586L17.0578 12.006ZM9.24676 12.006L9.49436 11.7585L9.48932 11.7537L9.24676 12.006ZM7.62775 8.10001L7.97794 8.10676L7.97768 8.09328L7.62775 8.10001ZM9.24676 4.19404H9.59676V3.37211L9.00421 3.94171L9.24676 4.19404ZM13.147 15.75C15.1846 15.7781 17.1441 14.9661 18.5647 13.505L18.0628 13.017C16.7763 14.3402 15.0019 15.0755 13.1566 15.0501L13.147 15.75ZM18.5578 13.512C20.0186 12.0916 20.8305 10.1326 20.8027 8.09524L20.1028 8.10479C20.128 9.9498 19.3927 11.7238 18.0698 13.0101L18.5578 13.512ZM20.8027 8.10482C20.8307 6.06716 20.0188 4.1078 18.5578 2.6871L18.0698 3.18895C19.3928 4.47553 20.1281 6.24993 20.1028 8.09521L20.8027 8.10482ZM18.5612 2.69052C15.5738 -0.296448 10.7307 -0.296451 7.74331 2.69052L8.23825 3.18553C10.9523 0.471882 15.3522 0.471878 18.0663 3.18553L18.5612 2.69052ZM7.7468 2.68708C6.28567 4.1077 5.47372 6.06714 5.50178 8.10483L6.20171 8.09519C6.1763 6.24989 6.91159 4.47545 8.23477 3.18897L7.7468 2.68708ZM5.50178 8.09519C5.47372 10.133 6.28567 12.0924 7.7468 13.513L8.23477 13.0111C6.91159 11.7246 6.1763 9.95023 6.20171 8.10483L5.50178 8.09519ZM7.73992 13.5061C9.16061 14.9663 11.1195 15.7778 13.1566 15.75L13.147 15.0501C11.3022 15.0752 9.52823 14.3404 8.24164 13.018L7.73992 13.5061ZM9.49431 4.44245C10.4643 3.47202 11.7802 2.92682 13.1523 2.92682V2.22682C11.5945 2.22682 10.1005 2.84581 8.99922 3.94758L9.49431 4.44245ZM13.1523 2.92682C14.5243 2.92682 15.8402 3.47202 16.8103 4.44245L17.3053 3.94757C16.204 2.84581 14.71 2.22682 13.1523 2.22682V2.92682ZM16.8152 4.44725C17.8046 5.39909 18.3522 6.72058 18.3258 8.0933L19.0257 8.10673C19.0558 6.53902 18.4305 5.02982 17.3004 3.94278L16.8152 4.44725ZM18.3258 8.1068C18.3525 9.47982 17.8049 10.8017 16.8152 11.7538L17.3004 12.2583C18.4307 11.171 19.0561 9.66131 19.0257 8.09323L18.3258 8.1068ZM16.8103 11.7586C15.8403 12.729 14.5244 13.2742 13.1523 13.2742V13.9742C14.7101 13.9742 16.2041 13.3552 17.3053 12.2535L16.8103 11.7586ZM13.1523 13.2742C11.7802 13.2742 10.4643 12.729 9.49431 11.7586L8.99922 12.2535C10.1005 13.3552 11.5945 13.9742 13.1523 13.9742V13.2742ZM9.48932 11.7537C8.49917 10.8019 7.95124 9.47997 7.97768 8.10675L7.27781 8.09328C7.24761 9.66158 7.87339 11.1713 9.00421 12.2583L9.48932 11.7537ZM7.97768 8.09328C7.95124 6.72009 8.49917 5.39816 9.48932 4.44636L9.00421 3.94171C7.87339 5.02874 7.24761 6.53847 7.27781 8.10675L7.97768 8.09328ZM8.89676 4.19404V4.19501H9.59676V4.19404H8.89676Z" />
    <path
      d="M25.9257 24.1071C25.878 23.4648 25.7958 22.8255 25.6797 22.192C25.5651 21.5404 25.4077 20.8971 25.2086 20.2661C25.0076 19.6403 24.7422 19.0371 24.4167 18.4661C24.0966 17.8922 23.6947 17.3681 23.2237 16.9101C22.7271 16.4434 22.1447 16.0777 21.5087 15.8331C20.8108 15.5627 20.068 15.427 19.3197 15.4331C18.8833 15.4789 18.4703 15.6529 18.1327 15.9331C17.7767 16.1651 17.3607 16.4331 16.8967 16.7331C16.3943 17.0315 15.8568 17.2667 15.2967 17.4331C14.0267 17.8545 12.6546 17.8545 11.3847 17.4331C10.8244 17.2669 10.287 17.0317 9.7847 16.7331C9.32467 16.4391 8.90866 16.1711 8.5477 15.9331C8.21042 15.653 7.7977 15.479 7.36166 15.4331C6.61325 15.4268 5.87051 15.5625 5.1727 15.8331C4.53665 16.0776 3.95419 16.4434 3.45767 16.9101C2.98672 17.3678 2.58481 17.8916 2.26468 18.4651C1.9393 19.0362 1.67392 19.6394 1.47269 20.265C1.27377 20.8957 1.11642 21.5388 1.00168 22.1901C0.885283 22.8238 0.803129 23.4634 0.755705 24.106C0.715666 24.6851 0.69467 25.2871 0.69467 25.8961C0.631376 27.3198 1.17465 28.7036 2.18967 29.7041C3.23868 30.6607 4.62326 31.1639 6.04165 31.1041H20.6407C22.0591 31.1638 23.4436 30.6606 24.4926 29.7041C25.5097 28.7046 26.0549 27.3206 25.9926 25.8961C25.9926 25.2851 25.9716 24.6831 25.9317 24.1061L25.9257 24.1071ZM23.2677 28.4181C22.5488 29.0608 21.6034 29.3905 20.6407 29.3341H6.04666C5.08414 29.3908 4.1387 29.0615 3.41965 28.419C2.75992 27.7518 2.41678 26.8344 2.47665 25.898C2.47665 25.33 2.4957 24.7691 2.53268 24.231C2.57565 23.6525 2.64975 23.0767 2.75467 22.5061C2.85531 21.9309 2.99362 21.3631 3.16867 20.8061C3.33261 20.2985 3.54837 19.8093 3.81265 19.346C4.04794 18.9224 4.34335 18.535 4.68967 18.196C5.02054 17.8881 5.40805 17.6473 5.83066 17.4871C6.27792 17.3158 6.7518 17.2244 7.23068 17.2171C7.29269 17.2501 7.40365 17.317 7.58267 17.43C7.94766 17.6681 8.36868 17.9391 8.83365 18.2371C9.46243 18.6198 10.1367 18.9222 10.8407 19.137C12.4644 19.6723 14.217 19.6723 15.8407 19.137C16.5453 18.9222 17.2202 18.6199 17.8497 18.2371C18.3257 17.937 18.7346 17.6691 19.0997 17.4311C19.2787 17.3141 19.3897 17.2511 19.4517 17.218C19.9306 17.2254 20.4044 17.3168 20.8517 17.4881C21.2742 17.6485 21.6617 17.8893 21.9926 18.197C22.3391 18.5359 22.6346 18.9233 22.8697 19.3471C23.1341 19.8102 23.3499 20.2995 23.5137 20.8071C23.6888 21.364 23.8271 21.9319 23.9277 22.507C24.0323 23.0777 24.1065 23.6535 24.1497 24.2321C24.1877 24.7681 24.2067 25.3321 24.2067 25.898C24.2667 26.8345 23.9236 27.7519 23.2636 28.419L23.2677 28.4181Z" />
    <path
      d="M25.9257 24.1071L25.5767 24.133L25.6051 24.516L25.9838 24.4522L25.9257 24.1071ZM25.6797 22.192L25.3349 22.2526L25.3354 22.2552L25.6797 22.192ZM25.2086 20.2661L25.5424 20.1608L25.5419 20.159L25.2086 20.2661ZM24.4167 18.4661L24.111 18.6366L24.1126 18.6394L24.4167 18.4661ZM23.2237 16.9101L23.4677 16.6591L23.4633 16.655L23.2237 16.9101ZM21.5087 15.8331L21.3822 16.1595L21.3831 16.1598L21.5087 15.8331ZM19.3197 15.4331L19.3168 15.0831L19.2999 15.0832L19.2831 15.085L19.3197 15.4331ZM18.1327 15.9331L18.3238 16.2263L18.3406 16.2153L18.3562 16.2024L18.1327 15.9331ZM16.8967 16.7331L17.0756 17.0342L17.0867 17.027L16.8967 16.7331ZM15.2967 17.4331L15.1969 17.0974L15.1864 17.1009L15.2967 17.4331ZM11.3847 17.4331L11.495 17.1007L11.4842 17.0975L11.3847 17.4331ZM9.7847 16.7331L9.59612 17.0282L9.60582 17.0339L9.7847 16.7331ZM8.5477 15.9331L8.32409 16.2023L8.33892 16.2146L8.35501 16.2253L8.5477 15.9331ZM7.36166 15.4331L7.3983 15.085L7.3815 15.0832L7.3646 15.0831L7.36166 15.4331ZM5.1727 15.8331L5.29827 16.1598L5.29923 16.1594L5.1727 15.8331ZM3.45767 16.9101L3.21792 16.655L3.21372 16.6591L3.45767 16.9101ZM2.26468 18.4651L2.5688 18.6383L2.57028 18.6357L2.26468 18.4651ZM1.47269 20.265L1.13949 20.1579L1.13889 20.1598L1.47269 20.265ZM1.00168 22.1901L1.34593 22.2533L1.34637 22.2508L1.00168 22.1901ZM0.755705 24.106L0.406651 24.0803L0.406539 24.0819L0.755705 24.106ZM0.69467 25.8961L1.04432 25.9116L1.04467 25.9039V25.8961H0.69467ZM2.18967 29.7041L1.94379 29.9535L1.95383 29.9627L2.18967 29.7041ZM6.04165 31.1041V30.7541H6.03428L6.02691 30.7544L6.04165 31.1041ZM20.6407 31.1041L20.6554 30.7544L20.648 30.7541H20.6407V31.1041ZM24.4926 29.7041L24.7286 29.9629L24.738 29.9537L24.4926 29.7041ZM25.9926 25.8961H25.6426V25.9037L25.643 25.9114L25.9926 25.8961ZM25.9317 24.1061L26.2808 24.0819L26.2542 23.6969L25.8736 23.7609L25.9317 24.1061ZM23.2677 28.4181L23.501 28.679L23.1852 28.0779L23.2677 28.4181ZM20.6407 29.3341L20.6611 28.9847L20.6509 28.9841H20.6407V29.3341ZM6.04666 29.3341V28.9841H6.03636L6.02608 28.9847L6.04666 29.3341ZM3.41965 28.419L3.17076 28.6651L3.17838 28.6728L3.18645 28.68L3.41965 28.419ZM2.47665 25.898L2.82594 25.9204L2.82665 25.9092V25.898H2.47665ZM2.53268 24.231L2.18364 24.2051L2.18351 24.207L2.53268 24.231ZM2.75467 22.5061L3.09891 22.5694L3.09943 22.5664L2.75467 22.5061ZM3.16867 20.8061L2.8356 20.6985L2.83477 20.7011L3.16867 20.8061ZM3.81265 19.346L4.11668 19.5195L4.11863 19.516L3.81265 19.346ZM4.68967 18.196L4.45113 17.9398L4.44484 17.9459L4.68967 18.196ZM5.83066 17.4871L5.95475 17.8143L5.95583 17.8139L5.83066 17.4871ZM7.23068 17.2171L7.39506 16.9081L7.31548 16.8657L7.22535 16.8671L7.23068 17.2171ZM7.58267 17.43L7.77387 17.1368L7.7695 17.1341L7.58267 17.43ZM8.83365 18.2371L8.64474 18.5318L8.65166 18.536L8.83365 18.2371ZM10.8407 19.137L10.9503 18.8046L10.9428 18.8023L10.8407 19.137ZM15.8407 19.137L15.7386 18.8022L15.7311 18.8046L15.8407 19.137ZM17.8497 18.2371L18.0316 18.5361L18.0363 18.5331L17.8497 18.2371ZM19.0997 17.4311L19.2909 17.7242L19.2912 17.724L19.0997 17.4311ZM19.4517 17.218L19.4571 16.8681L19.3668 16.8667L19.2872 16.9091L19.4517 17.218ZM20.8517 17.4881L20.7265 17.8149L20.7274 17.8153L20.8517 17.4881ZM21.9926 18.197L22.2374 17.9467L22.231 17.9408L21.9926 18.197ZM22.8697 19.3471L22.5636 19.5169L22.5657 19.5206L22.8697 19.3471ZM23.5137 20.8071L23.8476 20.7021L23.8468 20.6996L23.5137 20.8071ZM23.9277 22.507L23.5829 22.5673L23.5834 22.5702L23.9277 22.507ZM24.2067 25.898H23.8567V25.9092L23.8574 25.9204L24.2067 25.898ZM23.2636 28.419L23.0148 28.1729L22.1472 29.05L23.3461 28.7592L23.2636 28.419ZM26.2747 24.0811C26.2261 23.4264 26.1423 22.7747 26.0239 22.1289L25.3354 22.2552C25.4493 22.8764 25.5298 23.5032 25.5767 24.133L26.2747 24.0811ZM26.0244 22.1314C25.9071 21.4647 25.7461 20.8064 25.5424 20.1608L24.8749 20.3714C25.0693 20.9877 25.223 21.6162 25.3349 22.2526L26.0244 22.1314ZM25.5419 20.159C25.3334 19.5102 25.0582 18.8848 24.7207 18.2927L24.1126 18.6394C24.4261 19.1894 24.6818 19.7704 24.8754 20.3731L25.5419 20.159ZM24.7223 18.2956C24.3857 17.6921 23.9631 17.1408 23.4676 16.6591L22.9797 17.161C23.4264 17.5953 23.8075 18.0924 24.111 18.6366L24.7223 18.2956ZM23.4633 16.655C22.9338 16.1574 22.3126 15.7673 21.6343 15.5064L21.3831 16.1598C21.9768 16.3881 22.5205 16.7295 22.984 17.1651L23.4633 16.655ZM21.6351 15.5067C20.896 15.2204 20.1094 15.0766 19.3168 15.0831L19.3225 15.7831C20.0267 15.7773 20.7256 15.905 21.3822 16.1595L21.6351 15.5067ZM19.2831 15.085C18.778 15.138 18.3 15.3394 17.9092 15.6637L18.3562 16.2024C18.6406 15.9664 18.9886 15.8198 19.3562 15.7812L19.2831 15.085ZM17.9415 15.6398C17.5863 15.8714 17.1714 16.1387 16.7067 16.4392L17.0867 17.027C17.55 16.7275 17.9671 16.4587 18.3238 16.2263L17.9415 15.6398ZM16.718 16.4322C16.2403 16.7159 15.7295 16.9394 15.197 17.0976L15.3963 17.7686C15.9842 17.5939 16.5482 17.3472 17.0754 17.034L16.718 16.4322ZM15.1864 17.1009C13.988 17.4986 12.6933 17.4986 11.4949 17.1009L11.2744 17.7653C12.616 18.2105 14.0654 18.2105 15.4069 17.7653L15.1864 17.1009ZM11.4842 17.0975C10.9517 16.9396 10.4409 16.7161 9.96358 16.4323L9.60582 17.0339C10.133 17.3474 10.6971 17.5942 11.2851 17.7686L11.4842 17.0975ZM9.97318 16.4382C9.51356 16.1444 9.09922 15.8775 8.74038 15.6409L8.35501 16.2253C8.7181 16.4647 9.13579 16.7337 9.59621 17.028L9.97318 16.4382ZM8.7713 15.6638C8.38086 15.3396 7.90308 15.1381 7.3983 15.085L7.32502 15.7811C7.69231 15.8198 8.03998 15.9664 8.32409 16.2023L8.7713 15.6638ZM7.3646 15.0831C6.57192 15.0764 5.78525 15.2202 5.04617 15.5068L5.29923 16.1594C5.95577 15.9049 6.65458 15.7771 7.35872 15.7831L7.3646 15.0831ZM5.04712 15.5064C4.36874 15.7671 3.74751 16.1573 3.21796 16.655L3.69738 17.1651C4.16087 16.7294 4.70456 16.388 5.29827 16.1598L5.04712 15.5064ZM3.21372 16.6591C2.71845 17.1405 2.29576 17.6914 1.95908 18.2944L2.57028 18.6357C2.87385 18.0919 3.25499 17.5952 3.70162 17.161L3.21372 16.6591ZM1.96057 18.2918C1.62324 18.8839 1.34811 19.5092 1.13949 20.1579L1.80588 20.3722C1.99972 19.7695 2.25536 19.1884 2.56878 18.6383L1.96057 18.2918ZM1.13889 20.1598C0.935378 20.8051 0.774388 21.463 0.656985 22.1294L1.34637 22.2508C1.45846 21.6146 1.61216 20.9864 1.80648 20.3703L1.13889 20.1598ZM0.657434 22.1269C0.538769 22.773 0.455008 23.4251 0.406654 24.0803L1.10476 24.1318C1.15125 23.5018 1.2318 22.8747 1.34592 22.2533L0.657434 22.1269ZM0.406539 24.0819C0.365936 24.6691 0.34467 25.2791 0.34467 25.8961H1.04467C1.04467 25.295 1.0654 24.7011 1.10487 24.1302L0.406539 24.0819ZM0.345015 25.8805C0.27732 27.4033 0.858375 28.8833 1.94398 29.9533L2.43535 29.4548C1.49093 28.5239 0.985433 27.2363 1.04432 25.9116L0.345015 25.8805ZM1.95383 29.9627C3.07108 30.9815 4.54573 31.5175 6.0564 31.4538L6.02691 30.7544C4.70079 30.8103 3.40627 30.3398 2.4255 29.4454L1.95383 29.9627ZM6.04165 31.4541H20.6407V30.7541H6.04165V31.4541ZM20.6259 31.4538C22.1366 31.5174 23.6112 30.9815 24.7285 29.9627L24.2568 29.4454C23.276 30.3398 21.9816 30.8102 20.6554 30.7544L20.6259 31.4538ZM24.738 29.9537C25.8258 28.8847 26.4089 27.4044 26.3423 25.8808L25.643 25.9114C25.7009 27.2368 25.1937 28.5245 24.2473 29.4544L24.738 29.9537ZM26.3426 25.8961C26.3426 25.2771 26.3214 24.6671 26.2808 24.0819L25.5825 24.1303C25.6219 24.6991 25.6426 25.293 25.6426 25.8961H26.3426ZM25.8736 23.7609L25.8676 23.7619L25.9838 24.4522L25.9898 24.4512L25.8736 23.7609ZM23.0344 28.1571C22.3849 28.7378 21.5308 29.0357 20.6611 28.9847L20.6202 29.6835C21.6759 29.7454 22.7127 29.3838 23.501 28.679L23.0344 28.1571ZM20.6407 28.9841H6.04666V29.6841H20.6407V28.9841ZM6.02608 28.9847C5.15653 29.0359 4.30243 28.7384 3.65284 28.158L3.18645 28.68C3.97497 29.3846 5.01174 29.7456 6.06724 29.6835L6.02608 28.9847ZM3.66853 28.1729C3.07904 27.5768 2.77244 26.7571 2.82594 25.9204L2.12737 25.8757C2.06112 26.9118 2.44079 27.9268 3.17076 28.6651L3.66853 28.1729ZM2.82665 25.898C2.82665 25.3378 2.84544 24.7848 2.88186 24.255L2.18351 24.207C2.14595 24.7533 2.12665 25.3223 2.12665 25.898H2.82665ZM2.88172 24.257C2.92376 23.6909 2.99625 23.1276 3.0989 22.5694L2.41044 22.4428C2.30325 23.0258 2.22754 23.614 2.18364 24.2051L2.88172 24.257ZM3.09943 22.5664C3.19743 22.0064 3.33211 21.4534 3.50257 20.911L2.83477 20.7011C2.65513 21.2727 2.5132 21.8555 2.40991 22.4457L3.09943 22.5664ZM3.50172 20.9136C3.65828 20.429 3.86431 19.9618 4.11666 19.5195L3.50864 19.1726C3.23243 19.6568 3.00694 20.1681 2.83561 20.6985L3.50172 20.9136ZM4.11863 19.516C4.33751 19.1219 4.61233 18.7615 4.93449 18.4462L4.44484 17.9459C4.07438 18.3085 3.75837 18.7229 3.50668 19.1761L4.11863 19.516ZM4.92812 18.4522C5.22583 18.1752 5.5745 17.9585 5.95475 17.8143L5.70656 17.1598C5.2416 17.3361 4.81524 17.601 4.45121 17.9398L4.92812 18.4522ZM5.95583 17.8139C6.36482 17.6573 6.79814 17.5737 7.23601 17.567L7.22535 16.8671C6.70546 16.875 6.19102 16.9743 5.70548 17.1602L5.95583 17.8139ZM7.0663 17.5261C7.11507 17.552 7.21537 17.6121 7.39584 17.726L7.7695 17.1341C7.59194 17.022 7.47032 16.9481 7.39506 16.9081L7.0663 17.5261ZM7.39149 17.7232C7.75766 17.962 8.17961 18.2336 8.64479 18.5317L9.02251 17.9424C8.55775 17.6445 8.13766 17.3741 7.77385 17.1369L7.39149 17.7232ZM8.65166 18.536C9.30544 18.934 10.0065 19.2484 10.7385 19.4718L10.9428 18.8023C10.2669 18.596 9.61942 18.3056 9.01563 17.9381L8.65166 18.536ZM10.7311 19.4695C12.426 20.0282 14.2554 20.0282 15.9503 19.4695L15.7311 18.8046C14.1786 19.3165 12.5028 19.3165 10.9502 18.8046L10.7311 19.4695ZM15.9427 19.4718C16.6754 19.2485 17.3771 18.9341 18.0316 18.5361L17.6678 17.938C17.0634 18.3056 16.4153 18.596 15.7386 18.8023L15.9427 19.4718ZM18.0363 18.5331C18.515 18.2314 18.9265 17.9618 19.2909 17.7242L18.9085 17.1379C18.5428 17.3763 18.1363 17.6427 17.6631 17.941L18.0363 18.5331ZM19.2912 17.724C19.4628 17.6118 19.5648 17.5544 19.6162 17.527L19.2872 16.9091C19.2146 16.9478 19.0945 17.0163 18.9082 17.1381L19.2912 17.724ZM19.4463 17.568C19.8842 17.5748 20.3175 17.6583 20.7265 17.8149L20.9768 17.1612C20.4913 16.9753 19.9769 16.8761 19.4571 16.8681L19.4463 17.568ZM20.7274 17.8153C21.1077 17.9597 21.4565 18.1764 21.7543 18.4533L22.231 17.9408C21.8669 17.6022 21.4407 17.3374 20.9759 17.1609L20.7274 17.8153ZM21.7479 18.4473C22.0702 18.7624 22.3449 19.1227 22.5636 19.5169L23.1757 19.1773C22.9242 18.7239 22.6081 18.3094 22.2374 17.9468L21.7479 18.4473ZM22.5657 19.5206C22.8182 19.9628 23.0243 20.4299 23.1806 20.9146L23.8468 20.6996C23.6756 20.1691 23.45 19.6576 23.1736 19.1735L22.5657 19.5206ZM23.1798 20.9121C23.3503 21.4544 23.485 22.0074 23.5829 22.5673L24.2725 22.4467C24.1692 21.8565 24.0273 21.2737 23.8476 20.7021L23.1798 20.9121ZM23.5834 22.5702C23.6858 23.1286 23.7584 23.6921 23.8007 24.2582L24.4987 24.206C24.4546 23.615 24.3788 23.0268 24.272 22.4439L23.5834 22.5702ZM23.8006 24.2568C23.8379 24.784 23.8567 25.3397 23.8567 25.898H24.5567C24.5567 25.3244 24.5374 24.7522 24.4988 24.2074L23.8006 24.2568ZM23.8574 25.9204C23.911 26.7572 23.6044 27.5768 23.0148 28.1729L23.5125 28.6652C24.2427 27.927 24.6224 26.9118 24.556 25.8757L23.8574 25.9204ZM23.3461 28.7592L23.3502 28.7582L23.1852 28.0779L23.1811 28.0789L23.3461 28.7592Z" />
  </symbol>

  <symbol viewBox="0 0 34 25" id="eye">
    <path
      d="M17.1997 24.8002C14.5366 24.8185 11.9108 24.1742 9.55872 22.9252C7.61975 21.8713 5.88855 20.4736 4.44971 18.8002C2.88489 17.0151 1.61853 14.989 0.699707 12.8002C1.62061 10.6124 2.88672 8.58668 4.44971 6.80018C5.88855 5.12681 7.61975 3.72905 9.55872 2.67518C11.9108 1.42619 14.5366 0.781874 17.1997 0.800184C19.8628 0.781874 22.4886 1.42619 24.8407 2.67518C26.7797 3.72905 28.5109 5.12681 29.9497 6.80018C31.5145 8.58528 32.7809 10.6113 33.6997 12.8002C32.7788 14.9879 31.5127 17.0137 29.9497 18.8002C28.5109 20.4736 26.7797 21.8713 24.8407 22.9252C22.4886 24.1742 19.8628 24.8185 17.1997 24.8002ZM17.1997 3.80018C9.37268 3.80018 5.35266 10.1002 3.98669 12.8052C5.33765 15.5092 9.33069 21.8002 17.1997 21.8002C25.0258 21.8002 29.0477 15.5002 30.4137 12.7942C29.0637 10.0912 25.0728 3.80018 17.1997 3.80018ZM17.1997 18.8002C13.886 18.8002 11.1997 16.1139 11.1997 12.8002C11.1997 9.48646 13.886 6.80018 17.1997 6.80018C20.5134 6.80018 23.1997 9.48646 23.1997 12.8002C23.1965 16.1124 20.5122 18.7968 17.1998 18.8002H17.1997ZM17.1997 9.80018C15.5428 9.80018 14.1997 11.1433 14.1997 12.8002C14.1997 14.457 15.5428 15.8002 17.1997 15.8002C18.8566 15.8002 20.1997 14.457 20.1997 12.8002C20.1997 11.1433 18.8566 9.80018 17.1997 9.80018Z" />
  </symbol>

  <symbol viewBox="0 0 36 35" id="facebook">
    <path
      d="M18.0387 0.300049C8.96783 0.293213 1.42679 7.28314 0.74649 16.3284C0.0661622 25.3738 6.47687 33.413 15.4467 34.7631L15.4467 22.2341H11.1567V17.676H15.4477V14.6431C15.4477 9.62103 17.8937 7.41803 22.0677 7.41803C23.2567 7.4021 24.4453 7.47424 25.6237 7.63403L25.6237 11.613H22.7767C21.0057 11.613 20.3867 13.2921 20.3867 15.186V17.6771H25.5787L24.8787 22.2341H20.3857V34.8C29.4152 33.5645 35.9449 25.5464 35.3263 16.4539C34.7077 7.36121 27.1523 0.301331 18.0387 0.300049H18.0387Z" />
  </symbol>

  <symbol viewBox="0 0 32 31" id="email">
    <path
      d="M16.0041 22.5119C14.0084 22.5336 12.0882 21.7503 10.6769 20.3391C9.26569 18.9278 8.48249 17.0076 8.5041 15.0119C8.48274 13.0163 9.26606 11.0962 10.6772 9.68504C12.0884 8.27387 14.0085 7.49055 16.0041 7.51191C17.9998 7.49027 19.92 8.27351 21.3312 9.68473C22.7425 11.096 23.5257 13.0162 23.5041 15.0119C23.5257 17.0076 22.7425 18.9279 21.3312 20.3391C19.92 21.7503 17.9997 22.5336 16.0041 22.5119ZM16.0041 10.5119C14.8023 10.4843 13.6417 10.9495 12.7917 11.7995C11.9417 12.6495 11.4765 13.8102 11.5041 15.0119C11.4765 16.2136 11.9417 17.3744 12.7917 18.2243C13.6417 19.0743 14.8023 19.5396 16.0041 19.5119C17.2059 19.5396 18.3665 19.0743 19.2165 18.2243C20.0665 17.3744 20.5317 16.2136 20.5041 15.0119C20.5317 13.8102 20.0665 12.6495 19.2165 11.7995C18.3665 10.9495 17.2059 10.4843 16.0041 10.5119Z" />
    <path
      d="M23.4323 30.31H15.8552C7.48535 30.31 0.700195 23.5249 0.700195 15.155C0.700195 6.78513 7.48535 0 15.8552 0C24.2251 0 31.0103 6.78513 31.0103 15.155V17.428C31.0111 19.323 30.0005 21.0749 28.359 22.023C26.7177 22.971 24.6951 22.9711 23.0536 22.0232C21.4122 21.0752 20.4014 19.3233 20.4022 17.4278V15.155H23.4332V17.428C23.4338 18.6828 24.4513 19.6997 25.7062 19.6998C26.9611 19.6998 27.9785 18.6829 27.9792 17.428V15.155C27.9792 8.45911 22.5511 3.03101 15.8552 3.03101C9.1593 3.03101 3.7312 8.45911 3.7312 15.155C3.7312 21.8509 9.1593 27.279 15.8552 27.279H23.4323V30.31Z" />
  </symbol>

  <symbol viewBox="0 0 34 40" id="apple">
    <path
      d="M33.1206 30.938C32.547 32.2733 31.8386 33.5465 31.0066 34.738C30.2234 35.9324 29.3102 37.0361 28.2836 38.0291C27.3503 38.9619 26.1018 39.5116 24.7836 39.5701C23.6669 39.521 22.5699 39.259 21.5516 38.798C20.4521 38.3192 19.2704 38.058 18.0715 38.0291C16.8406 38.0533 15.6258 38.3144 14.4935 38.798C13.5154 39.2395 12.4703 39.5143 11.4016 39.611C10.0428 39.5947 8.75 39.0231 7.8236 38.0291C6.75232 37.0011 5.79736 35.8586 4.97558 34.6221C3.69226 32.7816 2.67834 30.7672 1.9646 28.6401C1.15014 26.35 0.722653 23.9404 0.699581 21.5101C0.635128 19.1262 1.22668 16.7706 2.40966 14.7C3.27124 13.2044 4.50439 11.9565 5.98962 11.077C7.45373 10.201 9.12439 9.72955 10.8306 9.71106C12.1189 9.78735 13.3849 10.0819 14.5746 10.582C15.5228 10.9997 16.5211 11.2931 17.5446 11.4551C18.673 11.2197 19.7759 10.8751 20.8376 10.426C22.257 9.849 23.7822 9.57806 25.3136 9.63104C28.2701 9.70758 31.0223 11.1567 32.7585 13.551C29.9873 15.0239 28.2867 17.9367 28.3666 21.074C28.3369 23.4525 29.3292 25.7294 31.0915 27.327C31.8824 28.0837 32.8054 28.6891 33.8146 29.113C33.5959 29.7464 33.3646 30.3537 33.1206 30.9351V30.938ZM25.5345 1.08704C25.5084 3.12036 24.7444 5.07495 23.3846 6.58698C21.6566 8.60706 19.5665 9.77405 17.3005 9.58704C17.2701 9.3399 17.2548 9.09106 17.2546 8.84204C17.3232 6.77539 18.1329 4.80237 19.5355 3.28308C20.314 2.41064 21.2588 1.70245 22.3146 1.20007C23.3031 0.689636 24.3843 0.383545 25.4935 0.300049C25.5217 0.561096 25.5354 0.823486 25.5345 1.08606V1.08704Z" />
  </symbol>

</svg>